<svg width="45" height="12" fill="none" xmlns="http://www.w3.org/2000/svg"><path d="M1.761 0c-.13 0-.239.094-.26.222L.004 9.727a.243.243 0 0 0 .24.28h1.778c.129 0 .24-.093.26-.221l.44-2.791a.263.263 0 0 1 .26-.222h1.615A3.833 3.833 0 0 0 8.38 3.528C8.675 1.646 7.205.004 5.12 0H1.761zM3.49 2.122h1.293c1.065 0 1.411.628 1.302 1.323-.11.696-.648 1.208-1.678 1.208H3.09l.4-2.531zm8.506.646a4.043 4.043 0 0 0-1.545.335c-1.33.554-1.968 1.7-2.24 2.535 0 0-.863 2.548 1.087 3.948 0 0 1.81 1.348 3.845-.083l-.035.224a.243.243 0 0 0 .24.28h1.688c.13 0 .24-.093.26-.221l1.026-6.509a.242.242 0 0 0-.138-.259.243.243 0 0 0-.102-.022h-1.688c-.129 0-.24.094-.26.222l-.054.35s-.737-.805-2.084-.8zm.055 2.056c.194 0 .371.027.53.078.728.233 1.141.933 1.022 1.69a1.89 1.89 0 0 1-1.895 1.622 1.73 1.73 0 0 1-.53-.078c-.728-.234-1.143-.933-1.024-1.691a1.893 1.893 0 0 1 1.897-1.621z" fill="#003087"/><path d="M26.06 0c-.13 0-.24.094-.26.222l-1.499 9.505a.244.244 0 0 0 .24.28h1.778c.13 0 .24-.093.26-.221l.44-2.791a.263.263 0 0 1 .26-.222h1.616a3.832 3.832 0 0 0 3.783-3.245C32.974 1.646 31.503.004 29.418 0H26.06zm1.728 2.122h1.293c1.064 0 1.41.628 1.301 1.323-.11.696-.648 1.208-1.678 1.208h-1.316l.4-2.531zm8.505.646a4.043 4.043 0 0 0-1.545.335c-1.33.554-1.968 1.7-2.24 2.535 0 0-.862 2.548 1.088 3.948 0 0 1.809 1.348 3.845-.083l-.035.224a.244.244 0 0 0 .24.28h1.687c.13 0 .24-.093.26-.221l1.027-6.509a.243.243 0 0 0-.24-.281h-1.688c-.13 0-.24.094-.26.222l-.055.35s-.737-.805-2.084-.8zm.056 2.056c.193 0 .37.027.53.078.728.233 1.14.933 1.02 1.69a1.89 1.89 0 0 1-1.894 1.622 1.73 1.73 0 0 1-.53-.078c-.728-.234-1.143-.933-1.023-1.691a1.893 1.893 0 0 1 1.897-1.621z" fill="#0070E0"/><path d="M17.121 2.996a.198.198 0 0 0-.188.258l1.85 5.74-1.672 2.706a.197.197 0 0 0 .167.3h1.977a.33.33 0 0 0 .281-.158l5.167-8.547a.197.197 0 0 0-.17-.299h-1.976a.329.329 0 0 0-.283.162L20.241 6.59l-1.033-3.408a.263.263 0 0 0-.251-.187H17.12z" fill="#003087"/><path d="M42.537 0c-.13 0-.24.094-.26.222l-1.5 9.504a.244.244 0 0 0 .241.282h1.778c.129 0 .24-.094.26-.222L44.553.28a.245.245 0 0 0-.138-.259.244.244 0 0 0-.102-.022h-1.777z" fill="#0070E0"/></svg>